<svg aria-hidden="true" style="position: absolute; width: 0; height: 0; overflow: hidden;" version="1.1" xmlns="http://www.w3.org/2000/svg" xmlns:xlink="http://www.w3.org/1999/xlink">
<defs>
<symbol id="icon-burger" viewBox="0 0 32 32">
<path fill="none" stroke="#720036" style="stroke: var(--color1, #720036)" stroke-linejoin="round" stroke-linecap="round" stroke-miterlimit="4" stroke-width="5.3333" d="M4 8h24M4 16h24M4 24h24"></path>
</symbol>
<symbol id="icon-prev-btn" viewBox="0 0 39 32">
<path d="M0.521 14.743c-0.694 0.694-0.694 1.82 0 2.514l11.314 11.314c0.694 0.694 1.82 0.694 2.514 0s0.694-1.82 0-2.514l-10.057-10.057 10.057-10.057c0.694-0.694 0.694-1.82 0-2.514s-1.82-0.694-2.514 0l-11.314 11.314zM37.333 14.222h-35.556v3.556h35.556v-3.556z"></path>
</symbol>
<symbol id="icon-next-btn" viewBox="0 0 39 32">
<path d="M38.591 14.743c0.694 0.694 0.694 1.82 0 2.514l-11.314 11.314c-0.694 0.694-1.82 0.694-2.514 0s-0.694-1.82 0-2.514l10.057-10.057-10.057-10.057c-0.694-0.694-0.694-1.82 0-2.514s1.82-0.694 2.514 0l11.314 11.314zM1.778 14.222h35.556v3.556h-35.556v-3.556z"></path>
</symbol>
<symbol id="icon-elipse-grey" viewBox="0 0 64 32">
<path fill="#d9d9d9" style="fill: var(--color1, #d9d9d9)" d="M0 32c0-8.45 3.357-16.555 9.332-22.53s14.080-9.332 22.53-9.332c8.45 0 16.554 3.357 22.53 9.332s9.332 14.080 9.332 22.53h-2.783c0-7.712-3.064-15.109-8.517-20.562s-12.85-8.517-20.562-8.517c-7.712 0-15.109 3.064-20.562 8.517s-8.517 12.85-8.517 20.562h-2.783z"></path>
</symbol>
<symbol id="icon-logo" viewBox="0 0 35 32">
<path fill="#720036" style="fill: var(--color1, #720036)" d="M2.37 2.963h5.333c0.982 0 1.778 0.796 1.778 1.778v17.778c0 0.982-0.796 1.778-1.778 1.778h-5.333c-0.982 0-1.778-0.796-1.778-1.778v-17.778c0-0.982 0.796-1.778 1.778-1.778z"></path>
<path fill="#720036" style="fill: var(--color1, #720036)" d="M11.852 0h4.741c0.982 0 1.778 0.796 1.778 1.778v20.741c0 0.982-0.796 1.778-1.778 1.778h-4.741c-0.982 0-1.778-0.796-1.778-1.778v-20.741c0-0.982 0.796-1.778 1.778-1.778z"></path>
<path fill="#720036" style="fill: var(--color1, #720036)" d="M20.165 8.333l4.435-2.558c0.851-0.491 1.938-0.199 2.429 0.651l7.044 12.189c0.491 0.85 0.2 1.937-0.65 2.428l-4.435 2.558c-0.851 0.491-1.938 0.199-2.429-0.651l-7.044-12.189c-0.491-0.85-0.2-1.937 0.65-2.428z"></path>
<path fill="#720036" style="fill: var(--color1, #720036)" d="M1.185 26.065c0-0.504 0.409-0.913 0.913-0.913h3.612c0.257 0 0.47 0.076 0.638 0.228 0.169 0.146 0.295 0.337 0.38 0.571 0.088 0.234 0.132 0.48 0.132 0.737s-0.044 0.509-0.132 0.755c-0.088 0.24-0.222 0.436-0.402 0.588-0.176 0.152-0.399 0.228-0.667 0.228 0 0-0 0-0.001 0-0.002 0-0.004-0-0.004 0.002s0.002 0.007 0.004 0.007c0.001 0 0.001 0 0.001 0 0.31 0 0.567 0.085 0.771 0.255s0.355 0.386 0.454 0.65c0.1 0.263 0.149 0.541 0.149 0.834 0 0.217-0.029 0.427-0.086 0.632-0.054 0.205-0.136 0.392-0.247 0.562-0.111 0.164-0.249 0.296-0.414 0.395-0.165 0.094-0.356 0.14-0.575 0.14h-3.34c-0.655 0-1.185-0.531-1.185-1.185 0-0.398 0-0.796 0-1.194s0-0.793 0-1.185c0-0.398 0-0.796 0-1.194 0-0.304 0-0.609 0-0.913zM3.454 28.606c-0.001 0.002-0.003 0.006-0.003 0.009 0 0.063 0 0.126 0 0.189 0 0.064 0 0.129 0 0.193 0 0.047 0 0.094 0 0.14 0 0.041 0 0.082 0 0.123s0 0.082 0 0.123c0 0.001 0 0.002 0 0.003 0 0.003 0.003 0.006 0.006 0.006h0.817c0.104 0 0.18-0.041 0.23-0.123 0.054-0.082 0.080-0.176 0.080-0.281 0-0.053-0.006-0.099-0.017-0.14-0.007-0.027-0.015-0.053-0.026-0.076-0.015-0.032-0.032-0.067-0.055-0.094-0.029-0.035-0.068-0.059-0.112-0.070-0.015-0.004-0.031-0.006-0.048-0.006h-0.861c-0.004 0-0.007 0-0.009 0.004zM3.456 27.373c-0.004 0-0.006 0.003-0.006 0.009 0 0.035 0 0.076 0 0.123 0 0.041 0 0.085 0 0.132 0 0.041 0 0.085 0 0.132 0 0.064 0 0.132 0 0.202 0 0.064 0 0.126 0 0.184 0 0.001 0 0.002 0 0.003 0 0.003 0.003 0.006 0.006 0.006h0.788c0.069 0 0.127-0.018 0.173-0.053 0.046-0.041 0.080-0.091 0.104-0.149 0.023-0.064 0.035-0.132 0.035-0.202 0-0.099-0.023-0.187-0.069-0.263-0.042-0.082-0.105-0.123-0.19-0.123h-0.84z"></path>
<path fill="#720036" style="fill: var(--color1, #720036)" d="M10.22 24.889c0.705 0 1.292 0.152 1.759 0.457s0.818 0.723 1.052 1.255c0.234 0.533 0.351 1.144 0.351 1.835 0 0.375-0.036 0.737-0.109 1.089-0.073 0.345-0.188 0.67-0.345 0.975-0.157 0.299-0.36 0.562-0.609 0.79-0.249 0.222-0.548 0.395-0.897 0.518-0.345 0.129-0.746 0.193-1.202 0.193-0.326 0-0.625-0.035-0.897-0.105-0.268-0.064-0.512-0.155-0.73-0.272-0.219-0.123-0.412-0.269-0.581-0.439-0.165-0.17-0.309-0.357-0.431-0.562-0.119-0.211-0.218-0.433-0.299-0.667-0.077-0.234-0.134-0.48-0.172-0.737-0.035-0.258-0.052-0.518-0.052-0.781 0-0.345 0.029-0.673 0.086-0.983 0.061-0.31 0.149-0.597 0.264-0.86 0.119-0.263 0.264-0.497 0.437-0.702 0.176-0.211 0.381-0.389 0.615-0.536 0.234-0.152 0.496-0.266 0.788-0.342 0.295-0.082 0.619-0.123 0.972-0.123zM10.226 27.681c-0.134 0-0.249 0.023-0.345 0.070-0.092 0.041-0.167 0.099-0.224 0.176-0.054 0.070-0.094 0.152-0.121 0.246-0.023 0.088-0.034 0.179-0.034 0.272 0 0.123 0.023 0.243 0.069 0.36s0.123 0.214 0.23 0.29c0.107 0.076 0.249 0.114 0.425 0.114 0.103 0 0.194-0.015 0.27-0.044 0.081-0.029 0.148-0.067 0.201-0.114 0.058-0.053 0.104-0.111 0.138-0.176 0.038-0.070 0.065-0.14 0.081-0.211 0.015-0.076 0.023-0.152 0.023-0.228 0-0.088-0.013-0.176-0.040-0.263-0.023-0.088-0.061-0.167-0.115-0.237-0.054-0.076-0.127-0.138-0.219-0.184s-0.205-0.070-0.339-0.070z"></path>
<path fill="#720036" style="fill: var(--color1, #720036)" d="M16.66 24.889c0.705 0 1.292 0.152 1.76 0.457s0.818 0.723 1.052 1.255 0.351 1.144 0.351 1.835c0 0.375-0.036 0.737-0.109 1.089-0.073 0.345-0.188 0.67-0.345 0.975-0.157 0.299-0.36 0.562-0.61 0.79-0.249 0.222-0.548 0.395-0.897 0.518-0.345 0.129-0.746 0.193-1.202 0.193-0.326 0-0.625-0.035-0.897-0.105-0.268-0.064-0.512-0.155-0.73-0.272-0.219-0.123-0.412-0.269-0.581-0.439-0.165-0.17-0.309-0.357-0.431-0.562-0.119-0.211-0.219-0.433-0.299-0.667-0.077-0.234-0.134-0.48-0.172-0.737-0.034-0.258-0.052-0.518-0.052-0.781 0-0.345 0.029-0.673 0.086-0.983 0.061-0.31 0.149-0.597 0.264-0.86 0.119-0.263 0.265-0.497 0.437-0.702 0.176-0.211 0.381-0.389 0.615-0.536 0.234-0.152 0.496-0.266 0.788-0.342 0.295-0.082 0.619-0.123 0.972-0.123zM16.666 27.681c-0.134 0-0.249 0.023-0.345 0.070-0.092 0.041-0.167 0.099-0.224 0.176-0.054 0.070-0.094 0.152-0.121 0.246-0.023 0.088-0.035 0.179-0.035 0.272 0 0.123 0.023 0.243 0.069 0.36s0.123 0.214 0.23 0.29c0.107 0.076 0.249 0.114 0.425 0.114 0.104 0 0.194-0.015 0.27-0.044 0.080-0.029 0.148-0.067 0.201-0.114 0.057-0.053 0.103-0.111 0.138-0.176 0.038-0.070 0.065-0.14 0.080-0.211 0.015-0.076 0.023-0.152 0.023-0.228 0-0.088-0.013-0.176-0.040-0.263-0.023-0.088-0.061-0.167-0.115-0.237-0.054-0.076-0.126-0.138-0.218-0.184s-0.205-0.070-0.339-0.070z"></path>
<path fill="#720036" style="fill: var(--color1, #720036)" d="M24.2 31.737c-0.579 0-1.084-0.393-1.226-0.954l-0.592-2.338c0.077-0.275 0.151-0.55 0.224-0.825s0.146-0.547 0.218-0.816c0.077-0.275 0.151-0.55 0.224-0.825 0.135-0.486 0.575-0.825 1.079-0.825h0.985c0.37 0 0.632 0.36 0.517 0.711-0.088 0.269-0.178 0.541-0.27 0.816-0.088 0.275-0.171 0.53-0.247 0.764s-0.14 0.424-0.19 0.571c-0.045 0.137-0.047 0.285-0.007 0.423 0.004 0.013 0.008 0.027 0.012 0.042 0.050 0.164 0.115 0.38 0.195 0.65s0.169 0.562 0.265 0.878c0.096 0.31 0.19 0.617 0.282 0.922 0.121 0.401-0.178 0.808-0.597 0.808h-0.873zM21.189 31.737c-0.659 0-1.193-0.534-1.193-1.193 0-0.030 0-0.059 0-0.089 0-0.433 0-0.863 0-1.291s0-0.855 0-1.282c0-0.433 0-0.863 0-1.291 0-0.24 0-0.48 0-0.72 0-0.398 0.322-0.72 0.72-0.72h0.859c0.446 0 0.808 0.362 0.808 0.808 0 0.269 0 0.538 0 0.808s0 0.538 0 0.808c0 0.269 0 0.538 0 0.808 0 0.006 0 0.015 0 0.026s0 0.023 0 0.035c0 0.006 0 0.012 0 0.018s0 0.015 0 0.026c0 0.006 0 0.012 0 0.018 0 0.538 0 1.077 0 1.615 0 0.141 0 0.282 0 0.422 0 0.659-0.534 1.193-1.193 1.193z"></path>
<path fill="#720036" style="fill: var(--color1, #720036)" d="M27.22 31.737c-0.659 0-1.193-0.534-1.193-1.193 0-0.024 0-0.047 0-0.071 0-0.421 0-0.843 0-1.264s0-0.843 0-1.264c0-0.421 0-0.843 0-1.264 0-0.257 0-0.512 0-0.764 0-0.422 0.342-0.764 0.764-0.764h0.429c0.659 0 1.193 0.534 1.193 1.193 0 0.17 0 0.34 0 0.51 0 0.562 0 1.127 0 1.694 0 0.351 0 0.705 0 1.062 0 0.351 0 0.705 0 1.062 0 0.587-0.476 1.062-1.062 1.062h-0.131z"></path>
<path fill="#720036" style="fill: var(--color1, #720036)" d="M31.541 28.444c0 0 0 0.003 0 0.009 0 0.004-0.001 0.008-0.002 0.011s-0.003 0.007-0.003 0.012c0 0.001-0 0.004-0 0.005l-0.336 2.269c-0.084 0.567-0.571 0.987-1.144 0.987h-0.354c-0.581 0-1.003-0.55-0.868-1.115 0.092-0.375 0.182-0.749 0.27-1.124 0.091-0.372 0.186-0.741 0.285-1.107 0.002-0.006 0.002-0.017 0.002-0.017 0-0.006-0.001-0.012-0.002-0.017-0.149-0.536-0.288-1.068-0.417-1.598-0.009-0.036-0.018-0.073-0.027-0.109-0.185-0.755 0.378-1.498 1.155-1.498 0.593 0 1.093 0.443 1.165 1.031l0.271 2.217c0 0.012 0.004 0.023 0.005 0.034 0 0.003 0.001 0.006 0.001 0.010zM31.357 28.91c0-0.006 0.002-0.011 0.004-0.017 0.001-0.003 0.002-0.007 0.002-0.010 0-0.006 0-0.012 0.001-0.017 0.057-0.413 0.112-0.822 0.166-1.229 0.054-0.416 0.107-0.831 0.161-1.247 0.011-0.078 0.022-0.157 0.032-0.235 0.079-0.573 0.567-1.003 1.146-1.003 0.752 0 1.303 0.709 1.135 1.442-0.018 0.078-0.036 0.156-0.053 0.235-0.126 0.559-0.261 1.115-0.406 1.668-0.001 0.006-0.002 0.011-0.002 0.017 0 0 0.001 0.012 0.002 0.017 0.057 0.214 0.112 0.427 0.164 0.641 0.057 0.211 0.113 0.424 0.167 0.641 0.054 0.211 0.107 0.424 0.161 0.641 0.054 0.211 0.107 0.424 0.161 0.641 0.088 0.323-0.156 0.641-0.491 0.641h-0.897c-0.596 0-1.102-0.437-1.188-1.027l-0.257-1.756c-0.001-0.006-0.001-0.017-0.001-0.017 0-0.003-0.001-0.006-0.002-0.010-0.002-0.005-0.004-0.017-0.004-0.017z"></path>
</symbol>
<symbol id="icon-footer-arrow" viewBox="0 0 30 32">
<path fill="#fbfbfb" style="fill: var(--color1, #fbfbfb)" d="M18.853 30.759l10.302-12.716c0.948-1.171 0.948-3.070 0-4.238l-10.302-12.716-3.434 4.241 6.156 7.597h-19.539v5.994h19.539l-6.156 7.6 3.434 4.239z"></path>
</symbol>
<symbol id="icon-Linkedin" viewBox="0 0 32 32">
<path fill="none" opacity="0.1" stroke="#222" style="stroke: var(--color1, #222)" stroke-linejoin="miter" stroke-linecap="butt" stroke-miterlimit="4" stroke-width="1.2" d="M16.076 31.327c8.437 0 15.276-6.83 15.276-15.255s-6.839-15.255-15.276-15.255c-8.437 0-15.276 6.83-15.276 15.255s6.839 15.255 15.276 15.255z"></path>
<path d="M12.571 12.993c0.715 0 1.295-0.579 1.295-1.293s-0.58-1.293-1.295-1.293c-0.715 0-1.295 0.579-1.295 1.293s0.58 1.293 1.295 1.293z"></path>
<path d="M13.65 13.856h-2.159c-0.119 0-0.216 0.097-0.216 0.216v6.466c0 0.119 0.097 0.216 0.216 0.216h2.159c0.119 0 0.216-0.097 0.216-0.216v-6.466c0-0.119-0.097-0.216-0.216-0.216z"></path>
<path d="M20.081 13.497c-0.922-0.316-2.076-0.038-2.768 0.459-0.024-0.093-0.108-0.162-0.209-0.162h-2.158c-0.119 0-0.216 0.097-0.216 0.216v6.466c0 0.119 0.097 0.216 0.216 0.216h2.158c0.119 0 0.216-0.097 0.216-0.216v-4.647c0.349-0.3 0.798-0.396 1.166-0.24 0.357 0.15 0.561 0.518 0.561 1.007v3.88c0 0.119 0.097 0.216 0.216 0.216h2.158c0.119 0 0.216-0.097 0.216-0.216v-4.314c-0.025-1.771-0.859-2.427-1.555-2.665z"></path>
</symbol>
<symbol id="icon-facebook" viewBox="0 0 32 32">
<path fill="none" opacity="0.1" stroke="#222" style="stroke: var(--color1, #222)" stroke-linejoin="miter" stroke-linecap="butt" stroke-miterlimit="4" stroke-width="1.2" d="M16 31.327c8.437 0 15.276-6.83 15.276-15.255s-6.839-15.255-15.276-15.255c-8.437 0-15.276 6.83-15.276 15.255s6.839 15.255 15.276 15.255z"></path>
<path d="M17.391 12.167h1.404c0.129 0 0.234-0.099 0.234-0.22v-1.321c0-0.122-0.105-0.22-0.234-0.22h-1.404c-1.419 0-2.574 1.086-2.574 2.422v1.541h-1.638c-0.129 0-0.234 0.099-0.234 0.22v1.321c0 0.122 0.105 0.22 0.234 0.22h1.638v4.624c0 0.122 0.105 0.22 0.234 0.22h1.404c0.129 0 0.234-0.099 0.234-0.22v-4.624h1.638c0.101 0 0.19-0.061 0.222-0.151l0.468-1.321c0.024-0.067 0.012-0.141-0.032-0.199s-0.115-0.091-0.19-0.091h-2.106v-1.541c0-0.364 0.315-0.661 0.702-0.661z"></path>
</symbol>
<symbol id="icon-Twitter" viewBox="0 0 32 32">
<path fill="none" opacity="0.1" stroke="#222" style="stroke: var(--color1, #222)" stroke-linejoin="miter" stroke-linecap="butt" stroke-miterlimit="4" stroke-width="1.2" d="M15.924 31.327c8.437 0 15.276-6.83 15.276-15.255s-6.839-15.255-15.276-15.255c-8.437 0-15.276 6.83-15.276 15.255s6.839 15.255 15.276 15.255z"></path>
<path d="M20.917 13.251c-0.071-0.080-0.185-0.1-0.279-0.051-0.058 0.031-0.168 0.071-0.298 0.111 0.164-0.224 0.296-0.475 0.354-0.701 0.025-0.097-0.012-0.2-0.092-0.258s-0.187-0.057-0.267 0c-0.126 0.091-0.736 0.363-1.122 0.451-0.872-0.784-1.886-0.866-2.941-0.233-0.857 0.514-1.044 1.56-1.008 2.197-1.962-0.194-3.182-1.259-3.869-2.14-0.048-0.062-0.126-0.094-0.198-0.090-0.077 0.006-0.146 0.049-0.185 0.117-0.325 0.563-0.415 1.185-0.259 1.8 0.085 0.335 0.233 0.631 0.405 0.871-0.083-0.042-0.162-0.094-0.237-0.156-0.069-0.058-0.166-0.070-0.247-0.031-0.081 0.040-0.133 0.124-0.133 0.217 0 1.056 0.643 1.76 1.243 2.128-0.097-0.012-0.198-0.034-0.3-0.066-0.088-0.027-0.183 0-0.243 0.071s-0.075 0.171-0.037 0.257c0.337 0.766 0.976 1.293 1.767 1.484-0.69 0.416-1.614 0.62-2.46 0.52-0.11-0.016-0.214 0.056-0.249 0.164s0.011 0.227 0.107 0.283c1.284 0.74 2.444 1.005 3.447 1.005 1.46 0 2.586-0.56 3.272-1.028 1.848-1.26 3.001-3.522 2.84-5.547 0.296-0.225 0.739-0.64 1.014-1.086 0.057-0.090 0.047-0.209-0.024-0.288z"></path>
</symbol>
</defs>
</svg>
