<svg width="177" height="336" viewBox="0 0 177 336" fill="none" xmlns="http://www.w3.org/2000/svg">
<path d="M51.3171 287.266H77.9753V326.461L74.6431 333.588H44.6526C42.6532 333.588 41.3203 332.162 41.3203 330.024V319.335C41.3203 314.346 44.6526 309.714 49.3178 309.002L51.3171 308.645V287.266Z" stroke="#222222" stroke-width="3" stroke-miterlimit="10"/>
<path d="M47.9851 309.3H69.6449C74.3101 309.3 77.9756 311.438 77.9756 316.426V319.989" stroke="#222222" stroke-width="3" stroke-miterlimit="10"/>
<path d="M117.63 287.266H90.9714V330.024C90.9714 332.162 92.3043 333.588 94.3037 333.588H130.959C132.958 333.588 134.291 332.162 134.291 330.024V319.335C134.291 314.346 130.959 309.714 126.294 309.002L117.63 308.645V287.266Z" stroke="#222222" stroke-width="3" stroke-miterlimit="10"/>
<path d="M98.6356 37.132C98.6356 39.6262 96.6363 41.4078 94.6369 41.4078C92.3043 41.4078 90.6382 39.2699 90.6382 37.132C90.6382 34.6378 92.6376 32.8562 94.6369 32.8562C96.9695 32.8562 98.6356 34.9941 98.6356 37.132Z" fill="#222222"/>
<path d="M115.963 37.132C115.963 39.6262 113.964 41.4078 111.965 41.4078C109.632 41.4078 107.966 39.2699 107.966 37.132C107.966 34.6378 109.965 32.8562 111.965 32.8562C113.964 32.8562 115.963 34.9941 115.963 37.132Z" fill="#222222"/>
<path d="M47.9854 87.0161V44.258C47.9854 20.7411 65.9797 1.5 87.9727 1.5C109.966 1.5 127.96 20.7411 127.96 44.258V87.0161C143.622 144.027 158.95 201.394 174.612 258.405C171.946 260.186 163.949 265.531 152.619 264.462C144.621 263.749 139.29 260.186 136.624 258.405C134.624 259.83 128.626 264.462 119.629 264.462C110.299 264.462 103.968 259.83 102.301 258.405C100.302 260.186 93.9708 264.818 84.6404 264.462C76.3097 264.462 70.3116 260.542 68.3123 258.761C66.3129 260.186 60.3148 264.462 51.6509 264.462C43.3202 264.462 37.3221 260.542 35.3227 258.761C33.3234 260.186 27.3253 264.462 18.9946 264.462C9.99746 264.462 3.99936 259.83 2 258.405C16.662 201.394 32.3237 144.027 47.9854 87.0161Z" stroke="#222222" stroke-width="3" stroke-miterlimit="10"/>
</svg>
