<svg width="40" height="40" viewBox="0 0 40 40" fill="none" xmlns="http://www.w3.org/2000/svg">
<path opacity="0.1" fill-rule="evenodd" clip-rule="evenodd" d="M20.0001 39.1587C30.5461 39.1587 39.0954 30.6212 39.0954 20.0897C39.0954 9.55822 30.5461 1.02075 20.0001 1.02075C9.45405 1.02075 0.904785 9.55822 0.904785 20.0897C0.904785 30.6212 9.45405 39.1587 20.0001 39.1587Z" stroke="#222222" stroke-width="1.5"/>
<path d="M21.7382 15.209H23.4932C23.6546 15.209 23.7857 15.0857 23.7857 14.9338V13.2823C23.7857 13.1304 23.6546 13.0071 23.4932 13.0071H21.7382C19.9644 13.0071 18.5207 14.3651 18.5207 16.0348V17.9615H16.4732C16.3117 17.9615 16.1807 18.0848 16.1807 18.2367V19.8882C16.1807 20.0401 16.3117 20.1634 16.4732 20.1634H18.5207V25.9436C18.5207 26.0955 18.6517 26.2188 18.8132 26.2188H20.5682C20.7296 26.2188 20.8607 26.0955 20.8607 25.9436V20.1634H22.9082C23.0339 20.1634 23.1457 20.0875 23.186 19.9752L23.771 18.3237C23.8009 18.24 23.7857 18.1475 23.7307 18.0754C23.6751 18.0039 23.5873 17.9615 23.4932 17.9615H20.8607V16.0348C20.8607 15.5795 21.2544 15.209 21.7382 15.209Z" fill="#222222"/>
</svg>
