<svg width="40" height="40" viewBox="0 0 40 40" fill="none" xmlns="http://www.w3.org/2000/svg">
<path opacity="0.1" fill-rule="evenodd" clip-rule="evenodd" d="M20.0953 39.1587C30.6414 39.1587 39.1906 30.6212 39.1906 20.0897C39.1906 9.55822 30.6414 1.02075 20.0953 1.02075C9.54926 1.02075 1 9.55822 1 20.0897C1 30.6212 9.54926 39.1587 20.0953 39.1587Z" stroke="#222222" stroke-width="1.5"/>
<path d="M15.7134 16.2407C16.6077 16.2407 17.3326 15.5169 17.3326 14.6241C17.3326 13.7313 16.6077 13.0076 15.7134 13.0076C14.8192 13.0076 14.0942 13.7313 14.0942 14.6241C14.0942 15.5169 14.8192 16.2407 15.7134 16.2407Z" fill="#222222"/>
<path d="M17.0628 17.3198H14.3641C14.2151 17.3198 14.0942 17.4405 14.0942 17.5893V25.672C14.0942 25.8208 14.2151 25.9415 14.3641 25.9415H17.0628C17.2117 25.9415 17.3326 25.8208 17.3326 25.672V17.5893C17.3326 17.4405 17.2117 17.3198 17.0628 17.3198Z" fill="#222222"/>
<path d="M25.1015 16.8715C23.9484 16.477 22.506 16.8235 21.6411 17.4448C21.6114 17.329 21.5056 17.2427 21.3799 17.2427H18.6819C18.533 17.2427 18.4121 17.3634 18.4121 17.5122V25.5949C18.4121 25.7437 18.533 25.8644 18.6819 25.8644H21.3799C21.5288 25.8644 21.6497 25.7437 21.6497 25.5949V19.7861C22.0857 19.4111 22.6474 19.2915 23.1071 19.4865C23.5528 19.6746 23.8081 20.1337 23.8081 20.7453V25.5949C23.8081 25.7437 23.9289 25.8644 24.0779 25.8644H26.7759C26.9248 25.8644 27.0457 25.7437 27.0457 25.5949V20.2027C27.0149 17.9885 25.9719 17.1689 25.1015 16.8715Z" fill="#222222"/>
</svg>
