<svg width="59" height="54" viewBox="0 0 59 54" fill="none" xmlns="http://www.w3.org/2000/svg">
<rect x="1" y="5" width="15" height="36" rx="3" fill="#720036"/>
<rect x="17" width="14" height="41" rx="3" fill="#720036"/>
<rect width="14.6389" height="29.7574" rx="3" transform="matrix(0.866228 -0.49965 0.50035 0.865823 31.4302 15.5615)" fill="#720036"/>
<path d="M2 43.9852C2 43.1343 2.68981 42.4444 3.54074 42.4444H9.63629C10.0697 42.4444 10.4287 42.5728 10.7133 42.8296C10.9979 43.0765 11.2114 43.3975 11.3537 43.7926C11.5025 44.1877 11.5769 44.6025 11.5769 45.037C11.5769 45.4716 11.5025 45.8963 11.3537 46.3111C11.2049 46.716 10.9785 47.0469 10.6745 47.3037C10.377 47.5605 10.0018 47.6889 9.54896 47.6889C9.54896 47.6889 9.5482 47.6889 9.54667 47.6889C9.54258 47.6889 9.53926 47.6885 9.53926 47.6926C9.53926 47.6967 9.54258 47.7037 9.54667 47.7037C9.5482 47.7037 9.54896 47.7037 9.54896 47.7037C10.0729 47.7037 10.5063 47.8469 10.8492 48.1333C11.192 48.4198 11.4475 48.7852 11.6157 49.2296C11.7839 49.6741 11.868 50.1432 11.868 50.637C11.868 51.0025 11.8195 51.358 11.7224 51.7037C11.6319 52.0494 11.4928 52.3654 11.3052 52.6519C11.1176 52.9284 10.8847 53.1506 10.6066 53.3185C10.3284 53.4765 10.005 53.5556 9.63629 53.5556H4C2.89543 53.5556 2 52.6601 2 51.5556C2 50.884 2 50.2123 2 49.5407C2 48.8691 2 48.2025 2 47.5407C2 46.8691 2 46.1975 2 45.5259C2 45.0123 2 44.4988 2 43.9852ZM5.82867 48.2728C5.82642 48.2763 5.823 48.2837 5.823 48.2878C5.823 48.3943 5.823 48.5009 5.823 48.6074C5.823 48.716 5.823 48.8247 5.823 48.9333C5.823 49.0123 5.823 49.0914 5.823 49.1704C5.823 49.2395 5.823 49.3086 5.823 49.3778C5.823 49.4469 5.823 49.516 5.823 49.5852C5.823 49.5871 5.823 49.5888 5.823 49.5903C5.823 49.5957 5.82734 49.6 5.8327 49.6H7.21053C7.38518 49.6 7.51456 49.5309 7.59865 49.3926C7.68921 49.2543 7.73449 49.0963 7.73449 48.9185C7.73449 48.8296 7.72479 48.7506 7.70538 48.6815C7.69403 48.6352 7.67935 48.5924 7.66135 48.5529C7.63647 48.4984 7.60659 48.4402 7.56792 48.3944C7.51863 48.336 7.45357 48.2951 7.37951 48.2764C7.35388 48.2699 7.32667 48.2667 7.29786 48.2667H5.84411C5.83699 48.2667 5.83257 48.2669 5.82867 48.2728ZM5.8327 46.1926C5.82623 46.1926 5.823 46.1975 5.823 46.2074C5.823 46.2667 5.823 46.3358 5.823 46.4148C5.823 46.484 5.823 46.558 5.823 46.637C5.823 46.7062 5.823 46.7802 5.823 46.8593C5.823 46.9679 5.823 47.0815 5.823 47.2C5.823 47.3086 5.823 47.4123 5.823 47.5111C5.823 47.513 5.823 47.5147 5.823 47.5162C5.823 47.5216 5.82734 47.5259 5.8327 47.5259H7.16201C7.27845 47.5259 7.37548 47.4963 7.45311 47.437C7.53073 47.3679 7.58895 47.284 7.62776 47.1852C7.66657 47.0765 7.68598 46.963 7.68598 46.8444C7.68598 46.6765 7.64717 46.5284 7.56954 46.4C7.49839 46.2617 7.39165 46.1926 7.24934 46.1926H5.8327Z" fill="#720036"/>
<path d="M17.2459 42C18.4361 42 19.4258 42.2568 20.215 42.7704C21.0042 43.284 21.5961 43.9901 21.9907 44.8889C22.3853 45.7877 22.5826 46.8198 22.5826 47.9852C22.5826 48.6173 22.5211 49.2296 22.3982 49.8222C22.2753 50.4049 22.0812 50.9531 21.816 51.4667C21.5508 51.9704 21.208 52.4148 20.7875 52.8C20.367 53.1753 19.8625 53.4667 19.2738 53.6741C18.6916 53.8914 18.0157 54 17.2459 54C16.6961 54 16.1915 53.9407 15.7322 53.8222C15.2794 53.7136 14.8686 53.5605 14.4999 53.363C14.1312 53.1556 13.8045 52.9086 13.5199 52.6222C13.2418 52.3358 12.9992 52.0198 12.7922 51.6741C12.5917 51.3185 12.4235 50.9432 12.2876 50.5481C12.1583 50.1531 12.0612 49.7383 11.9966 49.3037C11.9383 48.8691 11.9092 48.4296 11.9092 47.9852C11.9092 47.4025 11.9577 46.8494 12.0548 46.3259C12.1583 45.8025 12.307 45.3185 12.5011 44.8741C12.7016 44.4296 12.9474 44.0346 13.2385 43.6889C13.5361 43.3333 13.8822 43.0321 14.2768 42.7852C14.6714 42.5284 15.1145 42.3358 15.6061 42.2074C16.1042 42.0691 16.6508 42 17.2459 42ZM17.2556 46.7111C17.0292 46.7111 16.8351 46.7506 16.6734 46.8296C16.5182 46.8988 16.392 46.9975 16.295 47.1259C16.2044 47.2444 16.1365 47.3827 16.0912 47.5407C16.0524 47.6889 16.033 47.842 16.033 48C16.033 48.2074 16.0718 48.4099 16.1494 48.6074C16.2271 48.8049 16.3564 48.9679 16.5376 49.0963C16.7187 49.2247 16.958 49.2889 17.2556 49.2889C17.4302 49.2889 17.5823 49.2642 17.7116 49.2148C17.8475 49.1654 17.9607 49.1012 18.0512 49.0222C18.1483 48.9333 18.2259 48.8346 18.2841 48.7259C18.3488 48.6074 18.3941 48.4889 18.42 48.3704C18.4458 48.242 18.4588 48.1136 18.4588 47.9852C18.4588 47.837 18.4361 47.6889 18.3909 47.5407C18.352 47.3926 18.2874 47.2593 18.1968 47.1407C18.1062 47.0123 17.9833 46.9086 17.8281 46.8296C17.6728 46.7506 17.482 46.7111 17.2556 46.7111Z" fill="#720036"/>
<path d="M28.1144 42C29.3047 42 30.2944 42.2568 31.0836 42.7704C31.8727 43.284 32.4646 43.9901 32.8592 44.8889C33.2538 45.7877 33.4511 46.8198 33.4511 47.9852C33.4511 48.6173 33.3896 49.2296 33.2667 49.8222C33.1438 50.4049 32.9498 50.9531 32.6846 51.4667C32.4193 51.9704 32.0765 52.4148 31.656 52.8C31.2356 53.1753 30.731 53.4667 30.1424 53.6741C29.5602 53.8914 28.8842 54 28.1144 54C27.5646 54 27.06 53.9407 26.6008 53.8222C26.1479 53.7136 25.7372 53.5605 25.3685 53.363C24.9998 53.1556 24.6731 52.9086 24.3885 52.6222C24.1103 52.3358 23.8677 52.0198 23.6607 51.6741C23.4602 51.3185 23.292 50.9432 23.1562 50.5481C23.0268 50.1531 22.9298 49.7383 22.8651 49.3037C22.8069 48.8691 22.7778 48.4296 22.7778 47.9852C22.7778 47.4025 22.8263 46.8494 22.9233 46.3259C23.0268 45.8025 23.1756 45.3185 23.3696 44.8741C23.5702 44.4296 23.816 44.0346 24.1071 43.6889C24.4046 43.3333 24.7507 43.0321 25.1453 42.7852C25.5399 42.5284 25.983 42.3358 26.4746 42.2074C26.9727 42.0691 27.5193 42 28.1144 42ZM28.1241 46.7111C27.8977 46.7111 27.7037 46.7506 27.5419 46.8296C27.3867 46.8988 27.2606 46.9975 27.1635 47.1259C27.073 47.2444 27.005 47.3827 26.9598 47.5407C26.921 47.6889 26.9015 47.842 26.9015 48C26.9015 48.2074 26.9404 48.4099 27.018 48.6074C27.0956 48.8049 27.225 48.9679 27.4061 49.0963C27.5872 49.2247 27.8266 49.2889 28.1241 49.2889C28.2988 49.2889 28.4508 49.2642 28.5802 49.2148C28.716 49.1654 28.8292 49.1012 28.9198 49.0222C29.0168 48.9333 29.0944 48.8346 29.1527 48.7259C29.2173 48.6074 29.2626 48.4889 29.2885 48.3704C29.3144 48.242 29.3273 48.1136 29.3273 47.9852C29.3273 47.837 29.3047 47.6889 29.2594 47.5407C29.2206 47.3926 29.1559 47.2593 29.0653 47.1407C28.9748 47.0123 28.8519 46.9086 28.6966 46.8296C28.5414 46.7506 28.3505 46.7111 28.1241 46.7111Z" fill="#720036"/>
<path d="M40.8382 53.5556C39.8613 53.5556 39.009 52.8922 38.7692 51.9452L37.7701 48C37.8995 47.5358 38.0256 47.0716 38.1485 46.6074C38.2714 46.1432 38.3943 45.684 38.5172 45.2296C38.6466 44.7654 38.7727 44.3012 38.8956 43.837C39.124 43.0176 39.8665 42.4444 40.7172 42.4444H42.3792C43.0034 42.4444 43.4465 43.0513 43.2523 43.6444C43.1035 44.0988 42.9515 44.558 42.7963 45.0222C42.6475 45.4864 42.5084 45.916 42.379 46.3111C42.2496 46.7062 42.1429 47.0272 42.0588 47.2741C41.983 47.5057 41.9791 47.7547 42.0478 47.9885C42.0544 48.011 42.0613 48.0346 42.0685 48.0593C42.1526 48.3358 42.2626 48.7012 42.3984 49.1556C42.5343 49.6099 42.6831 50.1037 42.8448 50.637C43.0065 51.1605 43.165 51.679 43.3202 52.1926C43.5249 52.8697 43.0194 53.5556 42.312 53.5556H40.8382ZM35.7567 53.5556C34.6447 53.5556 33.7433 52.6541 33.7433 51.5422C33.7433 51.4923 33.7433 51.4425 33.7433 51.3926C33.7433 50.6617 33.7433 49.9358 33.7433 49.2148C33.7433 48.4938 33.7433 47.7728 33.7433 47.0519C33.7433 46.321 33.7433 45.5951 33.7433 44.8741C33.7433 44.4691 33.7433 44.0642 33.7433 43.6593C33.7433 42.9883 34.2872 42.4444 34.9581 42.4444H36.4071C37.1599 42.4444 37.7701 43.0547 37.7701 43.8074C37.7701 44.2617 37.7701 44.716 37.7701 45.1704C37.7701 45.6247 37.7701 46.079 37.7701 46.5333C37.7701 46.9877 37.7701 47.442 37.7701 47.8963C37.7701 47.9062 37.7701 47.921 37.7701 47.9407C37.7701 47.9605 37.7701 47.9802 37.7701 48C37.7701 48.0099 37.7701 48.0198 37.7701 48.0296C37.7701 48.0395 37.7701 48.0543 37.7701 48.0741C37.7701 48.084 37.7701 48.0938 37.7701 48.1037C37.7701 49.0123 37.7701 49.921 37.7701 50.8296C37.7701 51.0671 37.7701 51.3047 37.7701 51.5422C37.7701 52.6541 36.8687 53.5556 35.7567 53.5556Z" fill="#720036"/>
<path d="M45.9335 53.5556C44.8216 53.5556 43.9201 52.6541 43.9201 51.5422C43.9201 51.5022 43.9201 51.4622 43.9201 51.4222C43.9201 50.7111 43.9201 50 43.9201 49.2889C43.9201 48.5778 43.9201 47.8667 43.9201 47.1556C43.9201 46.4444 43.9201 45.7333 43.9201 45.0222C43.9201 44.5877 43.9201 44.158 43.9201 43.7333C43.9201 43.0215 44.4972 42.4444 45.209 42.4444H45.9335C47.0455 42.4444 47.9469 43.3459 47.9469 44.4578C47.9469 44.7447 47.9469 45.0316 47.9469 45.3185C47.9469 46.2667 47.9469 47.2198 47.9469 48.1778C47.9469 48.7704 47.9469 49.3679 47.9469 49.9704C47.9469 50.563 47.9469 51.1605 47.9469 51.763C47.9469 52.753 47.1443 53.5556 46.1543 53.5556H45.9335Z" fill="#720036"/>
<path d="M53.2261 48C53.2261 48 53.2261 48.0049 53.2261 48.0148C53.2261 48.0212 53.2248 48.0276 53.222 48.034C53.219 48.0411 53.2164 48.0462 53.2164 48.054C53.2164 48.0559 53.2163 48.0602 53.216 48.0622L52.6482 51.8908C52.5064 52.8473 51.6853 53.5556 50.7184 53.5556H50.1212C49.1414 53.5556 48.4281 52.627 48.656 51.6741C48.8112 51.042 48.9632 50.4099 49.112 49.7778C49.2661 49.1505 49.4265 48.5281 49.5933 47.9106C49.5959 47.9011 49.5972 47.8815 49.5972 47.8815C49.5972 47.8717 49.5958 47.8619 49.5932 47.8524C49.3424 46.9486 49.1076 46.0496 48.8889 45.1556C48.874 45.0942 48.8591 45.0329 48.8441 44.9717C48.5323 43.6972 49.4815 42.4444 50.7935 42.4444C51.7945 42.4444 52.6381 43.1913 52.7595 44.1849L53.2164 47.9259C53.2164 47.9453 53.223 47.9644 53.2252 47.9836C53.2258 47.9886 53.2261 47.9941 53.2261 48ZM52.9156 48.7852C52.9156 48.7755 52.919 48.7663 52.9223 48.7572C52.9243 48.7517 52.9253 48.7462 52.9253 48.7407C52.9253 48.7309 52.926 48.721 52.9273 48.7112C53.0237 48.015 53.1168 47.3236 53.2067 46.637C53.2973 45.9358 53.3878 45.2346 53.4784 44.5333C53.4967 44.4009 53.5149 44.2686 53.533 44.1365C53.6656 43.1688 54.4902 42.4444 55.467 42.4444C56.7364 42.4444 57.6654 43.6406 57.3817 44.878C57.3514 45.0099 57.3214 45.142 57.2917 45.2741C57.0793 46.2174 56.8509 47.1558 56.6065 48.0894C56.604 48.0989 56.6028 48.1087 56.6028 48.1185C56.6028 48.1185 56.604 48.1381 56.6066 48.1477C56.7022 48.5083 56.7948 48.869 56.8842 49.2296C56.9812 49.5852 57.075 49.9457 57.1655 50.3111C57.2561 50.6667 57.3467 51.0272 57.4372 51.3926C57.5278 51.7481 57.6183 52.1086 57.7089 52.4741C57.8578 53.0197 57.4456 53.5556 56.88 53.5556H55.3656C54.3599 53.5556 53.5063 52.8178 53.3608 51.8226L52.9275 48.8591C52.926 48.8493 52.9253 48.8296 52.9253 48.8296C52.9253 48.8241 52.9243 48.8187 52.9223 48.8132C52.919 48.8041 52.9156 48.7852 52.9156 48.7852Z" fill="#720036"/>
</svg>
