<svg width="40" height="40" viewBox="0 0 40 40" fill="none" xmlns="http://www.w3.org/2000/svg">
<path opacity="0.1" fill-rule="evenodd" clip-rule="evenodd" d="M19.9049 39.1587C30.4509 39.1587 39.0002 30.6212 39.0002 20.0897C39.0002 9.55822 30.4509 1.02075 19.9049 1.02075C9.35883 1.02075 0.80957 9.55822 0.80957 20.0897C0.80957 30.6212 9.35883 39.1587 19.9049 39.1587Z" stroke="#222222" stroke-width="1.5"/>
<path d="M26.1467 16.5643C26.0581 16.4643 25.9152 16.4392 25.798 16.5009C25.7252 16.5392 25.5881 16.5895 25.4255 16.6392C25.6307 16.3589 25.7957 16.0451 25.8686 15.763C25.9001 15.6415 25.854 15.5133 25.7537 15.4408C25.6534 15.369 25.5199 15.369 25.4196 15.4408C25.2616 15.554 24.499 15.8942 24.0168 16.0044C22.9271 15.024 21.659 14.9222 20.3407 15.7127C19.269 16.3553 19.0358 17.6621 19.0813 18.4586C16.6284 18.2161 15.1037 16.8853 14.2455 15.784C14.1854 15.7067 14.0886 15.666 13.9977 15.672C13.902 15.6792 13.8157 15.7337 13.7668 15.8181C13.361 16.5218 13.2484 17.2998 13.4426 18.0681C13.5487 18.4874 13.7341 18.8569 13.9493 19.1563C13.8461 19.1042 13.7464 19.0389 13.6525 18.9611C13.5662 18.888 13.4455 18.8742 13.3435 18.9227C13.242 18.9725 13.1773 19.0779 13.1773 19.1934C13.1773 20.5128 13.9807 21.3931 14.7311 21.8531C14.6099 21.8381 14.4833 21.8106 14.3556 21.7704C14.246 21.7363 14.1271 21.7704 14.0513 21.8591C13.9755 21.9471 13.9574 22.0729 14.0047 22.1801C14.4262 23.1377 15.225 23.7965 16.2133 24.0354C15.3503 24.5558 14.1953 24.811 13.1377 24.6858C13.0006 24.666 12.87 24.7553 12.8269 24.8906C12.7837 25.026 12.8403 25.1745 12.961 25.244C14.5655 26.1692 16.0162 26.4998 17.2697 26.4998C19.0941 26.4998 20.5022 25.8003 21.3593 25.2152C23.6699 23.6401 25.11 20.8122 24.9095 18.2819C25.2797 18.0011 25.8336 17.4824 26.177 16.9249C26.2482 16.8123 26.2353 16.6638 26.1467 16.5643Z" fill="#222222"/>
</svg>
